<?xml version="1.0" standalone="no"?>
<!DOCTYPE svg PUBLIC "-//W3C//DTD SVG 20010904//EN"
 "http://www.w3.org/TR/2001/REC-SVG-20010904/DTD/svg10.dtd">
<svg version="1.0" xmlns="http://www.w3.org/2000/svg"
 width="577.000000pt" height="577.000000pt" viewBox="0 0 577.000000 577.000000"
 preserveAspectRatio="xMidYMid meet">
<metadata>
Created by potrace 1.14, written by Peter Selinger 2001-2017
</metadata>
<g transform="translate(0.000000,577.000000) scale(0.100000,-0.100000)"
fill="#000000" stroke="none">
<path d="M3896 3772 c-7 -11 4 -52 14 -52 4 0 11 -11 14 -25 4 -14 11 -25 16
-25 6 0 10 -9 10 -20 0 -11 7 -20 15 -20 9 0 15 -9 15 -25 0 -16 6 -25 15 -25
9 0 15 -9 15 -25 0 -14 7 -28 15 -31 8 -4 15 -12 15 -20 0 -8 7 -14 15 -14 10
0 15 -10 15 -30 0 -20 5 -30 15 -30 8 0 15 -7 15 -16 0 -8 6 -22 13 -29 30
-34 37 -45 43 -69 3 -14 10 -26 15 -26 5 0 9 -7 9 -15 0 -8 7 -15 15 -15 10 0
15 -10 15 -30 0 -20 5 -30 15 -30 9 0 15 -9 15 -25 0 -16 6 -25 15 -25 9 0 15
-9 15 -25 0 -47 75 -55 86 -9 3 13 10 24 14 24 5 0 11 14 15 30 4 17 11 30 16
30 5 0 9 7 9 15 0 8 7 15 15 15 10 0 15 10 15 30 0 20 5 30 15 30 8 0 15 9 15
20 0 11 7 20 15 20 9 0 15 9 15 25 0 16 6 25 15 25 9 0 15 9 15 25 0 16 6 25
15 25 9 0 15 9 15 24 0 13 7 26 15 30 8 3 15 12 15 21 0 8 4 15 9 15 5 0 12
14 16 30 4 17 10 30 15 30 5 0 13 12 18 28 6 15 11 20 12 12 1 -8 5 -1 9 15 4
17 12 29 19 27 7 -1 12 9 12 23 0 14 7 28 15 31 9 4 15 19 15 35 l0 29 -414 0
c-228 0 -417 -4 -420 -8z"/>
<path d="M320 3621 c0 -5 -55 -11 -123 -12 -111 -4 -124 -6 -145 -26 -22 -23
-32 -70 -11 -58 6 4 13 -2 16 -14 5 -18 13 -21 59 -21 41 0 54 -4 54 -15 0 -8
6 -15 14 -15 7 0 16 -14 20 -31 3 -17 10 -28 16 -24 7 4 10 -185 10 -574 0
-347 -4 -581 -9 -581 -5 0 -12 -13 -16 -30 -4 -16 -13 -30 -21 -30 -8 0 -14
-7 -14 -15 0 -8 -7 -15 -15 -15 -8 0 -15 -4 -15 -9 0 -4 -31 -12 -70 -15 l-70
-7 0 -44 c0 -33 5 -47 18 -54 11 -6 205 -10 489 -10 406 0 472 2 477 14 4 10
20 15 55 15 34 0 51 4 55 15 3 9 18 15 36 15 17 0 29 4 26 9 -4 5 7 12 24 16
16 4 30 10 30 15 0 5 14 11 30 15 17 4 28 11 24 16 -3 5 2 9 11 9 8 0 18 7 21
15 4 8 12 15 20 15 8 0 14 7 14 15 0 8 7 15 15 15 8 0 15 5 15 10 0 6 11 21
25 34 14 13 25 28 25 35 0 6 7 11 15 11 9 0 15 9 15 25 0 16 6 25 15 25 10 0
15 10 15 30 0 20 5 30 15 30 10 0 15 10 15 30 0 20 5 30 15 30 11 0 15 12 15
45 0 33 4 45 15 45 12 0 15 17 15 89 0 50 5 93 10 96 6 3 10 35 10 71 0 36 -4
64 -10 64 -6 0 -10 35 -10 85 0 69 -3 85 -15 85 -11 0 -15 12 -15 45 0 33 -4
45 -15 45 -10 0 -15 10 -15 30 0 19 -5 29 -12 27 -8 -1 -14 10 -16 26 -2 15
-9 27 -18 27 -8 0 -14 10 -14 24 0 13 -7 26 -15 30 -8 3 -15 12 -15 21 0 8 -6
15 -13 15 -8 0 -20 11 -27 25 -7 14 -19 25 -27 25 -7 0 -13 7 -13 15 0 8 -7
15 -15 15 -8 0 -15 5 -15 11 0 5 -13 15 -30 20 -16 6 -30 15 -30 20 0 5 -7 9
-15 9 -8 0 -15 7 -15 15 0 10 -10 15 -30 15 -20 0 -30 5 -30 15 0 10 -10 15
-31 15 -16 0 -28 4 -25 9 6 10 -26 21 -61 21 -12 0 -23 5 -25 11 -2 7 -36 14
-83 17 -44 2 -81 8 -83 13 -5 12 -522 12 -522 0z m476 -140 c-7 -11 18 -21 55
-21 17 0 32 -6 35 -15 4 -8 15 -15 25 -15 10 0 19 -4 19 -10 0 -5 11 -12 25
-16 14 -3 25 -10 25 -15 0 -5 7 -9 15 -9 8 0 15 -7 15 -15 0 -8 7 -15 15 -15
8 0 15 -7 15 -15 0 -8 7 -15 15 -15 8 0 15 -7 15 -15 0 -8 7 -15 15 -15 8 0
15 -5 15 -11 0 -7 11 -22 25 -35 13 -12 27 -34 31 -48 3 -14 10 -26 15 -26 5
0 9 -11 9 -24 0 -14 7 -31 15 -40 8 -8 15 -32 15 -54 0 -47 9 -74 21 -66 5 3
9 -60 9 -146 0 -86 -4 -149 -9 -146 -13 9 -21 -19 -21 -74 0 -27 -5 -50 -11
-52 -5 -2 -13 -22 -16 -46 -3 -23 -11 -42 -17 -42 -6 0 -13 -12 -14 -26 -1
-14 -9 -32 -17 -40 -8 -9 -15 -22 -15 -30 0 -8 -4 -14 -10 -14 -5 0 -10 -7
-10 -15 0 -8 -7 -15 -15 -15 -8 0 -15 -7 -15 -15 0 -8 -7 -15 -15 -15 -8 0
-15 -7 -15 -15 0 -8 -7 -15 -15 -15 -8 0 -15 -7 -15 -15 0 -8 -7 -15 -15 -15
-8 0 -15 -7 -15 -15 0 -10 -10 -15 -30 -15 -19 0 -29 -5 -27 -12 1 -8 -15 -15
-43 -19 -25 -3 -40 -7 -35 -8 6 -2 -1 -7 -15 -11 -40 -13 -107 -11 -122 3 -7
8 -26 17 -41 21 -15 3 -27 11 -27 16 0 6 -6 10 -14 10 -8 0 -17 14 -21 30 -4
17 -10 30 -15 30 -4 0 -10 27 -14 60 -4 33 -11 60 -16 60 -6 0 -9 21 -8 48 l1
47 7 -45 c4 -25 8 178 8 450 1 339 -2 490 -9 480 -7 -11 -9 0 -8 40 1 30 4 58
6 63 2 4 58 7 124 7 68 0 118 -4 115 -9z m-239 -333 c-2 -13 -4 -3 -4 22 0 25
2 35 4 23 2 -13 2 -33 0 -45z"/>
<path d="M562 3435 c0 -16 2 -22 5 -12 2 9 2 23 0 30 -3 6 -5 -1 -5 -18z"/>
<path d="M1730 3566 c0 -38 3 -45 25 -50 14 -4 25 -11 25 -16 0 -6 16 -10 35
-10 23 0 35 -5 35 -14 0 -8 7 -16 15 -20 8 -3 15 -14 15 -25 0 -11 6 -21 13
-23 9 -4 12 -130 12 -589 l0 -585 -36 -37 c-20 -20 -46 -37 -58 -37 -11 0 -21
-4 -21 -10 0 -5 -26 -10 -57 -12 l-58 -3 -3 -42 -3 -43 574 0 575 0 6 23 c3
12 6 43 6 69 0 25 4 48 10 50 5 2 12 28 16 58 4 30 10 57 14 60 4 3 9 28 10
55 4 85 4 85 -39 85 -33 0 -40 -4 -45 -25 -4 -14 -11 -25 -16 -25 -6 0 -10 -7
-10 -15 0 -8 -7 -15 -15 -15 -8 0 -15 -9 -15 -21 0 -11 -5 -17 -10 -14 -6 3
-13 -2 -17 -12 -8 -21 -60 -73 -73 -73 -6 0 -10 -7 -10 -15 0 -10 -10 -15 -32
-15 -22 0 -29 -3 -20 -9 25 -15 -14 -21 -139 -21 -97 0 -121 3 -125 15 -4 8
-12 15 -20 15 -8 0 -14 10 -14 25 0 14 -7 28 -15 31 -13 5 -15 43 -15 259 0
216 2 254 15 259 9 3 15 0 15 -9 0 -12 20 -15 114 -15 92 0 115 -3 120 -15 3
-8 17 -15 31 -15 16 0 25 -6 25 -15 0 -8 4 -15 10 -15 5 0 13 -12 16 -27 4
-15 13 -34 21 -41 7 -7 13 -20 13 -28 0 -14 5 -16 53 -18 l27 -2 0 258 0 258
-39 0 c-37 0 -39 -1 -45 -40 -3 -22 -10 -40 -15 -40 -5 0 -12 -11 -15 -25 -11
-44 -37 -65 -81 -65 -25 0 -35 -3 -27 -9 14 -8 -99 -21 -190 -21 l-48 0 0 290
c0 244 2 290 14 290 8 0 16 -6 18 -12 3 -9 40 -14 116 -16 62 -2 112 -8 112
-13 0 -5 18 -12 39 -15 22 -4 42 -13 45 -20 3 -8 10 -14 16 -14 15 0 70 -55
70 -69 0 -6 7 -11 15 -11 8 0 15 -7 15 -15 0 -9 7 -18 15 -21 8 -4 15 -17 15
-30 0 -24 14 -30 44 -18 9 3 13 10 10 15 -3 5 2 9 10 9 12 0 16 10 16 40 0 22
-4 40 -10 40 -6 0 -10 46 -10 119 0 95 -3 123 -16 135 -14 14 -76 16 -535 16
l-519 0 0 -44z"/>
<path d="M3117 3603 c-4 -3 -7 -24 -7 -45 0 -31 4 -38 19 -38 10 0 21 -7 25
-15 3 -9 19 -15 41 -15 24 0 35 -4 35 -15 0 -8 7 -15 15 -15 11 0 15 -11 15
-40 0 -29 4 -40 15 -40 13 0 15 -68 15 -554 0 -480 -2 -557 -15 -570 -8 -8
-15 -26 -15 -40 0 -14 -5 -26 -11 -26 -6 0 -17 -7 -25 -15 -9 -8 -29 -15 -45
-15 -16 0 -29 -4 -29 -10 0 -5 -17 -10 -37 -10 -71 0 -83 -8 -83 -51 l0 -39
578 0 578 0 1 22 c1 11 6 24 11 27 5 3 11 37 14 75 2 42 9 71 16 74 7 2 12 25
12 58 0 39 4 56 15 60 18 7 20 55 3 72 -15 15 -78 16 -78 1 0 -7 -11 -22 -24
-34 -13 -12 -27 -32 -31 -43 -3 -12 -11 -22 -16 -22 -5 0 -9 -7 -9 -15 0 -8
-7 -15 -15 -15 -8 0 -15 -7 -15 -15 0 -8 -7 -15 -15 -15 -8 0 -15 -7 -15 -15
0 -8 -7 -15 -15 -15 -8 0 -15 -7 -15 -15 0 -10 -10 -15 -30 -15 -20 0 -30 -5
-30 -15 0 -13 -21 -15 -125 -15 -102 0 -127 3 -131 15 -4 8 -12 15 -20 15 -8
0 -14 6 -14 14 0 8 -5 16 -12 18 -6 2 -13 30 -16 61 -2 31 -8 57 -13 57 -4 0
-7 9 -6 20 1 11 5 20 9 20 11 0 9 810 -2 849 -5 17 -5 31 0 31 4 0 10 30 12
67 2 39 9 68 16 71 7 2 12 9 12 16 0 19 38 46 64 46 13 0 26 7 30 15 3 8 17
15 31 15 21 0 25 5 25 29 0 61 1 61 -359 61 -180 0 -331 -3 -334 -7z"/>
<path d="M4927 3590 c-9 -11 -20 -38 -23 -60 -4 -22 -10 -40 -14 -40 -5 0 -11
-13 -15 -30 -4 -16 -11 -30 -16 -30 -5 0 -9 -13 -9 -29 0 -16 -7 -36 -15 -45
-8 -8 -15 -26 -15 -40 0 -13 -7 -31 -15 -40 -8 -8 -15 -28 -15 -45 0 -21 -5
-31 -15 -31 -11 0 -15 -11 -15 -40 0 -29 -4 -40 -15 -40 -10 0 -15 -10 -15
-31 0 -17 -7 -37 -15 -45 -8 -9 -15 -29 -15 -45 0 -16 -4 -29 -10 -29 -5 0
-13 -18 -16 -40 -4 -22 -10 -40 -14 -40 -5 0 -11 -13 -15 -30 -4 -16 -10 -30
-14 -30 -5 0 -11 -19 -14 -42 -3 -24 -11 -44 -16 -46 -6 -2 -11 -17 -11 -33 0
-19 -5 -29 -15 -29 -11 0 -15 -11 -15 -40 0 -29 -4 -40 -15 -40 -11 0 -15 -11
-15 -40 0 -27 -5 -43 -15 -46 -8 -4 -15 -18 -15 -34 0 -16 -7 -30 -15 -34 -9
-3 -15 -18 -15 -40 0 -21 -6 -36 -15 -40 -8 -3 -15 -17 -15 -31 0 -14 -4 -25
-9 -25 -9 0 -27 -57 -23 -73 2 -5 -2 -6 -7 -3 -5 4 -13 -3 -16 -15 -11 -35
-38 -59 -65 -59 -20 0 -22 -2 -10 -10 12 -8 9 -10 -12 -10 -22 0 -31 -7 -41
-32 -8 -18 -12 -39 -9 -45 3 -10 70 -13 289 -13 l284 0 -3 43 c-3 42 -3 42
-45 45 -24 2 -43 7 -43 12 0 5 -12 10 -27 12 -20 2 -29 9 -31 26 -2 12 -8 22
-13 22 -5 0 -9 16 -9 35 0 19 5 35 10 35 6 0 10 16 10 36 0 20 6 48 14 62 8
15 18 44 21 65 3 20 10 37 15 37 6 0 10 14 10 30 l0 30 245 0 c211 0 245 -2
245 -15 0 -8 7 -15 15 -15 11 0 15 -11 15 -40 0 -27 5 -43 15 -46 10 -4 15
-20 15 -45 0 -28 4 -39 15 -39 12 0 15 -15 15 -74 0 -76 -13 -106 -46 -106 -8
0 -14 -4 -14 -9 0 -6 -19 -11 -42 -13 -43 -3 -43 -3 -46 -45 l-3 -43 305 0
306 0 0 45 c0 33 -4 45 -15 45 -8 0 -15 5 -15 10 0 6 -7 10 -15 10 -8 0 -15 7
-15 15 0 8 -7 15 -15 15 -8 0 -15 6 -15 14 0 8 -5 16 -11 18 -5 2 -13 22 -16
46 -3 23 -9 42 -14 42 -4 0 -11 16 -15 35 -3 19 -10 32 -15 29 -5 -3 -9 13 -9
36 0 27 -5 43 -15 46 -9 4 -15 19 -15 40 0 22 -6 37 -15 40 -9 4 -15 19 -15
40 0 22 -6 37 -15 40 -9 4 -15 19 -15 40 0 24 -5 34 -15 34 -11 0 -15 11 -15
39 0 25 -5 41 -15 45 -9 3 -15 18 -15 40 0 21 -6 36 -15 40 -9 3 -15 18 -15
36 0 16 -4 30 -10 30 -5 0 -13 18 -16 40 -4 22 -10 40 -15 40 -5 0 -9 13 -9
29 0 16 -7 36 -15 45 -8 8 -15 26 -15 41 0 14 -7 28 -15 31 -10 4 -15 20 -15
45 0 28 -4 39 -15 39 -11 0 -15 11 -15 39 0 25 -5 41 -15 45 -8 3 -15 17 -15
31 0 15 -7 33 -15 41 -8 9 -15 28 -15 44 0 15 -6 30 -13 33 -7 3 -14 22 -15
43 -2 21 -7 41 -12 44 -4 3 -12 18 -15 33 l-7 27 -107 0 c-94 0 -109 -2 -124
-20z m65 -412 c2 -20 8 -32 16 -30 8 1 12 -12 12 -43 0 -33 4 -45 15 -45 11 0
15 -11 15 -36 0 -19 4 -33 9 -30 9 6 21 -26 21 -57 0 -10 7 -25 15 -33 8 -9
15 -28 15 -44 0 -16 5 -30 11 -32 5 -2 13 -22 16 -46 3 -23 10 -42 15 -42 5 0
8 -10 6 -22 -3 -23 -5 -23 -185 -26 l-183 -2 0 40 c0 29 4 40 15 40 10 0 15
10 15 29 0 16 5 31 10 33 6 2 13 21 17 43 3 22 10 42 14 45 4 3 11 21 14 40 3
19 10 37 14 40 5 3 12 24 16 48 4 23 10 42 15 42 4 0 10 18 14 40 4 23 11 38
16 35 6 -3 10 2 10 13 0 43 28 43 32 0z"/>
</g>
</svg>
